<svg xmlns="http://www.w3.org/2000/svg" version="1.1" xmlns:xlink="http://www.w3.org/1999/xlink" xmlns:svgjs="http://svgjs.dev/svgjs" width="1000" height="287" viewBox="0 0 1000 287"><g transform="matrix(1,0,0,1,-0.6060606060606233,-0.366083949665267)"><svg viewBox="0 0 396 114" data-background-color="#ffffff" preserveAspectRatio="xMidYMid meet" height="287" width="1000" xmlns="http://www.w3.org/2000/svg" xmlns:xlink="http://www.w3.org/1999/xlink"><g id="tight-bounds" transform="matrix(1,0,0,1,0.2400000000000091,0.14541313680084045)"><svg viewBox="0 0 395.52 113.70917372639833" height="113.70917372639833" width="395.52"><g><svg viewBox="0 0 596.2040450047036 171.40440263405455" height="113.70917372639833" width="395.52"><g transform="matrix(1,0,0,1,200.68404500470365,23.689031044214488)"><svg viewBox="0 0 395.52000000000004 124.02634054562557" height="124.02634054562557" width="395.52000000000004"><g><svg viewBox="0 0 395.52000000000004 124.02634054562557" height="124.02634054562557" width="395.52000000000004"><g><svg viewBox="0 0 395.52000000000004 124.02634054562557" height="124.02634054562557" width="395.52000000000004"><g transform="matrix(1,0,0,1,0,0)"><svg width="395.52000000000004" viewBox="3.75 -37.5 165.3800048828125 50" height="124.02634054562557" data-palette-color="#14248a"><g class="undefined-text-0" data-fill-palette-color="primary" id="text-0"><path d="M18.55-20.1L18.55-20.1Q24.1-18.05 24.1-10.85L24.1-10.85Q24.1-7.2 23.28-5.2 22.45-3.2 20.9-2.05L20.9-2.05Q18.05 0 12 0L12 0 3.75 0 3.75-35 11.25-35Q19.15-35 21.25-31L21.25-31Q22-29.6 22-27.6 22-25.6 20.98-23.5 19.95-21.4 18.55-20.1ZM13-18.15L7.15-18.15 7.15-2.75 11.75-2.75Q16.4-2.75 18.3-4L18.3-4Q20.7-5.55 20.7-10.15L20.7-10.15Q20.7-16.4 16.3-17.7L16.3-17.7Q14.85-18.15 13-18.15L13-18.15ZM16.15-20.7L16.15-20.7Q18.6-23.9 18.6-27 18.6-30.1 16.65-31.18 14.7-32.25 11-32.25L11-32.25 7.15-32.25 7.15-20.9 13.25-20.9Q14.75-20.9 16.15-20.7ZM35.75-3.2L35.75-3.2Q36.85-2.8 39.25-2.8 41.65-2.8 45.45-4.75L45.45-4.75 45.45-25 48.7-25.25 48.7 0 45.45 0 45.45-2.7Q41.75 0.15 37.9 0.15L37.9 0.15Q33.1 0.15 30.95-2.7L30.95-2.7Q29.85-4.1 29.85-6.6L29.85-6.6 29.85-25 33.1-25.25 33.1-7.45Q33.1-4.35 35.75-3.2ZM58.95 0L55.7 0 55.7-37.25 58.95-37.5 58.95 0ZM67.69 0L64.44 0 64.44-37.25 67.69-37.5 67.69 0ZM87.69-24.5L86.89-21.7Q85.09-22.3 81.99-22.3 78.89-22.3 77.19-21.2 75.49-20.1 75.49-18.48 75.49-16.85 76.49-16.1 77.49-15.35 78.99-14.83 80.49-14.3 82.27-13.8 84.04-13.3 85.54-12.5L85.54-12.5Q89.04-10.7 89.04-7.15 89.04-3.6 86.62-1.7 84.19 0.2 79.54 0.2L79.54 0.2Q77.19 0.2 75.02-0.28 72.84-0.75 71.69-1.6L71.69-1.6 72.79-4.25Q73.94-3.25 77.44-2.8L77.44-2.8Q78.54-2.65 79.69-2.65L79.69-2.65Q82.29-2.65 84.04-3.73 85.79-4.8 85.79-7L85.79-7Q85.79-8.5 84.79-9.35 83.79-10.2 82.29-10.78 80.79-11.35 79.02-11.8 77.24-12.25 75.74-12.98 74.24-13.7 73.24-14.88 72.24-16.05 72.24-18.05L72.24-18.05Q72.24-21.3 74.74-23.25 77.24-25.2 81.44-25.2L81.44-25.2Q82.49-25.2 83.59-25.08 84.69-24.95 85.59-24.85L85.59-24.85 87.69-24.5ZM97.04-12.3L97.04-11.5Q97.04-2.7 105.44-2.7L105.44-2.7Q108.99-2.7 111.94-3.65L111.94-3.65Q112.69-3.9 112.99-4.05L112.99-4.05 113.74-1.4Q111.99-0.35 107.39 0.1L107.39 0.1Q106.09 0.2 104.64 0.2L104.64 0.2Q100.44 0.2 97.64-1.9L97.64-1.9Q93.79-4.75 93.79-11.4 93.79-18.05 97.26-21.63 100.74-25.2 105.69-25.2 110.64-25.2 113.14-22L113.14-22Q115.04-19.45 115.04-15.25L115.04-15.25Q115.04-14.25 114.94-13.15L114.94-13.15 97.09-13.15Q97.04-12.75 97.04-12.3L97.04-12.3ZM105.89-22.1L105.89-22.1Q102.79-22.1 100.59-20.23 98.39-18.35 97.54-15.4L97.54-15.4 112.09-15.4Q111.84-20.95 107.79-21.85L107.79-21.85Q106.89-22.1 105.89-22.1ZM127.74 0L118.84-25 122.49-25.25 129.94-2.35 139.54-25 143.04-25 126.44 12.5 123.39 12.5 128.89 0 127.74 0ZM151.13-12.3L151.13-11.5Q151.13-2.7 159.53-2.7L159.53-2.7Q163.08-2.7 166.03-3.65L166.03-3.65Q166.78-3.9 167.08-4.05L167.08-4.05 167.83-1.4Q166.08-0.35 161.48 0.1L161.48 0.1Q160.18 0.2 158.73 0.2L158.73 0.2Q154.53 0.2 151.73-1.9L151.73-1.9Q147.88-4.75 147.88-11.4 147.88-18.05 151.36-21.63 154.83-25.2 159.78-25.2 164.73-25.2 167.23-22L167.23-22Q169.13-19.45 169.13-15.25L169.13-15.25Q169.13-14.25 169.03-13.15L169.03-13.15 151.18-13.15Q151.13-12.75 151.13-12.3L151.13-12.3ZM159.98-22.1L159.98-22.1Q156.88-22.1 154.68-20.23 152.48-18.35 151.63-15.4L151.63-15.4 166.18-15.4Q165.93-20.95 161.88-21.85L161.88-21.85Q160.98-22.1 159.98-22.1Z" fill="#14248a" data-fill-palette-color="primary"></path></g></svg></g></svg></g></svg></g></svg></g><g><svg viewBox="0 0 171.40440263405455 171.40440263405455" height="171.40440263405455" width="171.40440263405455"><g><svg version="1.1" xmlns:dc="http://purl.org/dc/elements/1.1/" xmlns:inkscape="http://www.inkscape.org/namespaces/inkscape" xmlns:rdf="http://www.w3.org/1999/02/22-rdf-syntax-ns#" xmlns:cc="http://creativecommons.org/ns#" xmlns:svg="http://www.w3.org/2000/svg" xmlns:sodipodi="http://sodipodi.sourceforge.net/DTD/sodipodi-0.dtd" xmlns="http://www.w3.org/2000/svg" xmlns:xlink="http://www.w3.org/1999/xlink" x="0" y="0" viewBox="0 0 100 100" enable-background="new 0 0 100 100" xml:space="preserve" height="171.40440263405455" width="171.40440263405455" class="icon-icon-0" data-fill-palette-color="accent" id="icon-0"><path d="M50 0C22.386 0 0 22.386 0 50s22.386 50 50 50 50-22.386 50-50S77.614 0 50 0zM50 14.156c19.799 0 35.844 16.044 35.844 35.844 0 19.799-16.045 35.844-35.844 35.844-19.799 0-35.844-16.045-35.844-35.844C14.156 30.201 30.201 14.156 50 14.156zM50 20.125c-16.505 0-29.875 13.37-29.875 29.875S33.495 79.875 50 79.875 79.875 66.505 79.875 50 66.505 20.125 50 20.125zM50 29.75c11.178 0 20.25 9.072 20.25 20.25S61.178 70.25 50 70.25 29.75 61.178 29.75 50 38.822 29.75 50 29.75z" fill="#14248a" data-fill-palette-color="accent"></path></svg></g></svg></g></svg></g><defs></defs></svg><rect width="395.52" height="113.70917372639833" fill="none" stroke="none" visibility="hidden"></rect></g></svg></g></svg>