<svg id="Layer_2" data-name="Layer 2" xmlns="http://www.w3.org/2000/svg" viewBox="0 0 630.7 685.53"><defs><style>.cls-1,.cls-2,.cls-3{fill:none;stroke:#000;stroke-miterlimit:10;}.cls-1{stroke-width:52.53px;}.cls-2{stroke-width:39.4px;}.cls-3{stroke-width:79px;}</style></defs><title>user-directory</title><rect class="cls-1" x="84.38" y="26.27" width="520.06" height="633" rx="28.89"/><circle class="cls-2" cx="345.07" cy="260.69" r="87.99"/><path class="cls-2" d="M292.4,526.68c40.65,6.75,110.32,14.28,178,2.43a42,42,0,0,0,34.34-48c-4.35-27-10.95-62.62-18.83-87.4A41.87,41.87,0,0,0,446,364.6H316.68a42,42,0,0,0-38,24.25c-8.65,18.57-18.38,48.76-21.16,93.81A41.94,41.94,0,0,0,292.4,526.68Z" transform="translate(-36.53 -6.73)"/><line class="cls-3" x1="63.04" y1="147.74" y2="147.74"/><line class="cls-3" x1="63.04" y1="336.86" y2="336.86"/><line class="cls-3" x1="63.04" y1="533.85" y2="533.85"/></svg>